<?xml version="1.0" encoding="UTF-8" standalone="no"?>
<!DOCTYPE svg PUBLIC "-//W3C//DTD SVG 1.1//EN" "http://www.w3.org/Graphics/SVG/1.1/DTD/svg11.dtd">
<svg width="100%" height="100%" viewBox="0 0 1292 804" version="1.1" xmlns="http://www.w3.org/2000/svg" xmlns:xlink="http://www.w3.org/1999/xlink" xml:space="preserve" xmlns:serif="http://www.serif.com/" style="fill-rule:evenodd;clip-rule:evenodd;stroke-linejoin:round;stroke-miterlimit:2;">
    <g transform="matrix(1,0,0,1,-327.818842,-571.368842)">
        <g transform="matrix(1,0,0,1,327.818842,571.368842)">
            <path d="M1262.888,804L837.305,804C821.227,804 808.193,790.967 808.193,774.89L808.193,661.221C808.193,645.144 821.227,632.11 837.305,632.11L1262.888,632.11C1278.966,632.11 1291.1,645.144 1291.1,661.221L1291.1,774.89C1291.1,790.967 1278.966,804 1262.888,804ZM1262.888,382.593L837.305,382.593C821.227,382.593 808.193,369.56 808.193,353.483L808.193,239.814C808.193,223.737 821.227,210.703 837.305,210.703L1262.888,210.703C1278.966,210.703 1291.1,223.737 1291.1,239.814L1291.1,353.483C1291.1,369.56 1278.966,382.593 1262.888,382.593ZM993.953,171.89L568.369,171.89C552.291,171.89 539.258,158.856 539.258,142.779L539.258,29.11C539.258,13.033 552.291,-0 568.369,-0L993.953,-0C1010.031,-0 1023.064,13.033 1023.064,29.11L1023.064,142.779C1023.064,158.856 1010.031,171.89 993.953,171.89ZM454.695,171.89L29.112,171.89C13.034,171.89 0,158.856 0,142.779L0,29.11C0,13.033 13.034,-0 29.112,-0L454.695,-0C470.773,-0 483.807,13.033 483.807,29.11L483.807,142.779C483.807,158.856 470.773,171.89 454.695,171.89ZM213.485,239.814L213.485,353.483C213.485,369.56 200.451,382.593 184.373,382.593L0,382.593L0,210.703L184.373,210.703C200.451,210.703 213.485,223.737 213.485,239.814ZM29.112,421.407L454.695,421.407C470.773,421.407 483.807,434.44 483.807,450.517L483.807,564.186C483.807,580.263 470.773,593.297 454.695,593.297L29.112,593.297C13.034,593.297 0,580.263 0,564.186L0,450.517C0,434.44 13.034,421.407 29.112,421.407ZM213.485,661.221L213.485,774.89C213.485,790.967 200.451,804 184.373,804L0,804L0,632.11L184.373,632.11C200.451,632.11 213.485,645.144 213.485,661.221ZM298.047,382.593C281.969,382.593 268.936,369.56 268.936,353.483L268.936,239.814C268.936,223.737 281.969,210.703 298.047,210.703L723.631,210.703C739.709,210.703 752.742,223.737 752.742,239.814L752.742,353.483C752.742,369.56 739.709,382.593 723.631,382.593L298.047,382.593ZM1023.064,450.517L1023.064,564.186C1023.064,580.263 1010.031,593.297 993.953,593.297L568.369,593.297C552.291,593.297 539.258,580.263 539.258,564.186L539.258,450.517C539.258,434.44 552.291,421.407 568.369,421.407L993.953,421.407C1010.031,421.407 1023.064,434.44 1023.064,450.517ZM298.047,632.11L723.631,632.11C739.709,632.11 752.742,645.144 752.742,661.221L752.742,774.89C752.742,790.967 739.709,804 723.631,804L298.047,804C281.969,804 268.936,790.967 268.936,774.89L268.936,661.221C268.936,645.144 281.969,632.11 298.047,632.11Z" style="fill:currentColor;"/>
        </g>
    </g>
</svg>
